HIERARCHY
ROOT Hips
{
  OFFSET 15.1309 95.9007 -267.661
  CHANNELS 6 Xposition Yposition Zposition Zrotation Xrotation Yrotation
  JOINT RightUpLeg
  {
    OFFSET -8.9458 -8.66707 0.101652
    CHANNELS 3 Zrotation Xrotation Yrotation
    JOINT RightLeg
    {
      OFFSET 0 -44.4227 1.3727
      CHANNELS 3 Zrotation Xrotation Yrotation
      JOINT RightFoot
      {
        OFFSET 0.253549 -42.0924 -1.46059
        CHANNELS 3 Zrotation Xrotation Yrotation
        JOINT RightToes
        {
          OFFSET 0.04 -4.41509 8.4991
          CHANNELS 3 Zrotation Xrotation Yrotation
          End Site
          {
            OFFSET -0.08 -0.137448 9.77979
          }
        }
      }
    }
  }
  JOINT Spine
  {
    OFFSET 0 11.8905 0
    CHANNELS 3 Zrotation Xrotation Yrotation
    JOINT Spine1
    {
      OFFSET 0 25.6574 0.127663
      CHANNELS 3 Zrotation Xrotation Yrotation
      JOINT HEad
      {
        OFFSET 0 8.73416 0.011341
        CHANNELS 3 Zrotation Xrotation Yrotation
        End Site
        {
          OFFSET -0.29 12.7742 2.51395
        }
      }
      JOINT LeftShoulder1
      {
        OFFSET 8.99 -0.362252 -0.22
        CHANNELS 3 Zrotation Xrotation Yrotation
        JOINT LeftArm
        {
          OFFSET 10.2827 -0.00338 0.322123
          CHANNELS 3 Zrotation Xrotation Yrotation
          JOINT LeftForeArm
          {
            OFFSET 32.7669 0.099144 -1.42434
            CHANNELS 3 Zrotation Xrotation Yrotation
            JOINT LeftHand
            {
              OFFSET 27.5643 0.085362 1.02216
              CHANNELS 3 Zrotation Xrotation Yrotation
              End Site
              {
                OFFSET 16.7443 -0.6 1.50291
              }
            }
          }
        }
      }
      JOINT RightShoulder
      {
        OFFSET -8.99 -0.362252 -0.22
        CHANNELS 3 Zrotation Xrotation Yrotation
        JOINT RightArm
        {
          OFFSET -10.2827 -0.00338 0.322123
          CHANNELS 3 Zrotation Xrotation Yrotation
          JOINT RightForeArm
          {
            OFFSET -32.8971 0.099144 -1.42434
            CHANNELS 3 Zrotation Xrotation Yrotation
            JOINT RightHand
            {
              OFFSET -27.4921 0.085362 1.02216
              CHANNELS 3 Zrotation Xrotation Yrotation
              End Site
              {
                OFFSET -16.6312 -0.6 1.50291
              }
            }
          }
        }
      }
    }
  }
  JOINT LeftUpLeg
  {
    OFFSET 8.9458 -8.66707 0.101652
    CHANNELS 3 Zrotation Xrotation Yrotation
    JOINT LeftLeg
    {
      OFFSET 0 -44.4227 1.3727
      CHANNELS 3 Zrotation Xrotation Yrotation
      JOINT LeftFoot
      {
        OFFSET -0.253549 -42.0924 -1.46059
        CHANNELS 3 Zrotation Xrotation Yrotation
        JOINT LeftToes
        {
          OFFSET -0.04 -4.41509 8.4991
          CHANNELS 3 Zrotation Xrotation Yrotation
          End Site
          {
            OFFSET 0.08 -0.047448 9.77979
          }
        }
      }
    }
  }
}
MOTION
Frames:	6
Frame Time:	0.0166667
16.2255 95.0163 -313.403 -10.4792 -9.62754 -46.1777 -16.9117 -2.69902 13.7575 41.2483 24.5933 -53.2654 -30.4235 0.661784 -1.41196 0.0462048 0.000533403 0.662642 -6.70576 24.3171 -3.21502 -0.0056398 -0.00397999 -2.57987e-006 2.28047 1.70489 9.65457 -1.59028e-015 0 -3.18055e-015 -115.287 -50.7502 -92.1999 -44.7194 51.9903 -59.2604 18.655 17.2019 -15.6133 19.8769 7.54209 -3.49885 103.243 -9.23874 72.2417 31.0347 54.9847 89.7544 17.9615 20.506 0.676557 24.3827 -14.7833 -19.9298 -37.8927 18.5846 78.6941 12.344 -1.35733 -0.0945311 -1.18447e-009 1.5602e-007 -4.87131e-009 
15.9809 94.9051 -312.733 -10.6791 -9.5831 -46.5437 -16.8666 -2.3223 13.2145 40.7829 25.2097 -52.4731 -30.4255 1.1262 -1.41924 0.0462048 0.000533403 0.662642 -6.07154 23.9429 -3.61437 -0.0056398 -0.00397999 -2.57987e-006 1.63692 2.25929 10.2032 1.59028e-015 -7.95139e-016 1.27222e-014 -115.11 -51.7577 -92.2292 -45.3916 51.8548 -58.8796 18.522 17.4465 -15.8775 19.9925 7.89037 -3.16535 103.044 -9.3699 72.1915 31.0159 55.0212 89.6336 17.5913 20.5241 1.03123 25.7415 -14.0508 -20.9212 -34.8662 16.8215 75.247 -11.9242 -2.94614 0.00320189 -1.18447e-009 1.5602e-007 -4.87131e-009 
15.6915 94.5918 -311.832 -10.9329 -9.49988 -46.9379 -17.0028 -2.04821 12.71 40.8056 26.1534 -52.0096 -30.3831 1.34178 -1.4254 0.0462048 0.000533403 0.662642 -5.02133 23.2263 -4.07666 -0.0056398 -0.00397999 -2.57987e-006 0.763321 3.11805 10.6913 -3.18055e-015 0 3.18055e-015 -114.897 -52.8873 -91.9833 -46.173 51.7768 -58.4067 18.4614 17.5941 -16.0963 19.9901 8.44125 -2.88541 102.824 -9.52056 72.0988 30.9344 55.058 89.5113 17.3609 20.5779 1.32533 25.9585 -14.7391 -21.5246 -32.7092 15.4821 73.1624 -9.61956 -2.7211 -0.817882 -1.18447e-009 1.5602e-007 -4.87131e-009 
15.41 94.1582 -310.738 -11.2404 -9.35987 -47.3579 -17.2362 -1.83089 12.2373 41.0553 27.308 -51.6683 -30.3017 1.51614 -1.42679 0.0462048 0.000533403 0.662642 -3.57275 22.227 -4.57818 -0.0056398 -0.00397999 -2.57987e-006 -0.302067 4.1973 11.1321 -7.95139e-016 -1.59028e-015 6.36111e-015 -114.713 -54.097 -91.5697 -47.0888 51.7674 -57.8041 18.4031 17.738 -16.3411 19.8144 9.1278 -2.6741 102.652 -9.63966 71.98 30.7856 55.0938 89.3869 17.1397 20.6566 1.64887 26.3195 -16.1875 -22.9982 -31.7328 14.9445 72.9724 -10.3941 -3.0461 -0.899757 -1.18446e-009 1.5602e-007 -4.87131e-009 
15.1037 93.613 -309.482 -11.5919 -9.14946 -47.8 -17.5294 -1.66029 11.7909 41.4988 28.6541 -51.4257 -30.2103 1.64104 -1.4348 0.0462048 0.000533403 0.662642 -1.77172 20.9913 -5.0938 -0.0056398 -0.00397999 -2.57987e-006 -1.51297 5.42692 11.5418 0 0 -6.36111e-015 -114.582 -55.3522 -91.0452 -48.1361 51.8223 -57.0559 18.423 17.7563 -16.5282 19.4222 9.91028 -2.54231 102.577 -9.68599 71.8621 30.5738 55.1254 89.2533 17.0965 20.7506 1.85425 26.3582 -18.5377 -25.2589 -30.1518 16.5738 72.2985 -12.0296 -3.25471 -1.00262 -1.18447e-009 1.5602e-007 -4.87131e-009 
14.7902 92.983 -308.019 -11.981 -8.86357 -48.2674 -17.9033 -1.52257 11.3944 42.0908 30.1497 -51.2329 -30.0916 1.74324 -1.44081 0.0462048 0.000533403 0.662642 0.316825 19.5653 -5.59266 -0.0056398 -0.00397999 -2.57987e-006 -2.81964 6.75168 11.9369 -3.97569e-016 7.95139e-016 9.54166e-015 -114.488 -56.6256 -90.4211 -49.2896 51.9291 -56.1714 18.4562 17.7314 -16.7109 18.7962 10.7697 -2.49776 102.621 -9.62821 71.7737 30.3102 55.1459 89.1034 17.1117 20.8464 2.01026 26.3882 -20.5935 -27.4461 -29.1833 18.2641 72.3491 -14.4475 -3.28779 -1.15543 -1.18447e-009 1.5602e-007 -4.87131e-009 
